HIERARCHY
ROOT Hips
{
	OFFSET 0.000000 0.000000 0.000000
	CHANNELS 6 Xposition Yposition Zposition Zrotation Yrotation Xrotation 
	JOINT LHipJoint
	{
		OFFSET 0.000000 0.000000 0.000000
		CHANNELS 3 Zrotation Yrotation Xrotation
		JOINT LeftUpLeg
		{
			OFFSET 1.363060 -1.794630 0.839290
			CHANNELS 3 Zrotation Yrotation Xrotation
			JOINT LeftLeg
			{
				OFFSET 2.448110 -6.726130 0.000000
				CHANNELS 3 Zrotation Yrotation Xrotation
				JOINT LeftFoot
				{
					OFFSET 2.562200 -7.039590 0.000000
					CHANNELS 3 Zrotation Yrotation Xrotation
					JOINT LeftToeBase
					{
						OFFSET 0.157640 -0.433110 2.322550
						CHANNELS 3 Zrotation Yrotation Xrotation
						End Site
						{
							OFFSET 0.000000 0.000000 0.000000
						}
					}
				}
			}
		}
	}
	JOINT RHipJoint
	{
		OFFSET 0.000000 0.000000 0.000000
		CHANNELS 3 Zrotation Yrotation Xrotation
		JOINT RightUpLeg
		{
			OFFSET -1.305520 -1.794630 0.839290
			CHANNELS 3 Zrotation Yrotation Xrotation
			JOINT RightLeg
			{
				OFFSET -2.542530 -6.985550 0.000000
				CHANNELS 3 Zrotation Yrotation Xrotation
				JOINT RightFoot
				{
					OFFSET -2.568260 -7.056230 0.000000
					CHANNELS 3 Zrotation Yrotation Xrotation
					JOINT RightToeBase
					{
						OFFSET -0.164730 -0.452590 2.363150
						CHANNELS 3 Zrotation Yrotation Xrotation
						End Site
						{
							OFFSET 0.000000 0.000000 0.000000
						}
					}
				}
			}
		}
	}
}
MOTION
Frames: 28
Frame Time: 0.008333
8.109522 21.442291 1.657013 44.776450 -87.852097 -23.329433 -11.528381 3.041790 1.875494 -6.715908 4.999769 -19.966481 -0.021694 0.843431 24.749819 1.969828 5.023140 38.475877 2.733600 0.000000 -66.337701 11.346079 -2.757676 -1.609196 3.288496 -19.079887 -14.990259 1.275464 -1.415520 17.212718 -0.710944 4.424186 36.554789 3.293000 0.000000 -81.397100
7.921739 21.563843 1.645452 42.602075 -87.881247 -20.982188 -11.529418 2.904678 1.705488 -7.089510 5.519661 -21.012380 -0.088471 0.855277 24.574391 1.954998 5.285079 38.271776 2.926300 -0.000001 -66.056400 11.294196 -2.664620 -1.760926 3.864105 -19.507534 -16.044780 1.415725 -1.440481 17.207187 -0.614526 4.883999 35.958617 3.537000 -0.000000 -81.385300
7.735035 21.675472 1.633590 40.567143 -87.894684 -18.730004 -11.517705 2.768831 1.557976 -7.490005 5.900616 -22.064452 -0.158571 0.863324 24.242095 1.935796 5.624627 37.977981 3.172200 -0.000000 -66.123200 11.237239 -2.563346 -1.907584 4.467313 -19.893377 -17.143901 1.559239 -1.457459 17.098204 -0.525395 5.130730 35.302980 3.626600 0.000000 -81.658100
7.548304 21.776139 1.621434 38.664269 -87.899079 -16.571449 -11.494873 2.639971 1.433214 -7.913034 6.175998 -23.141905 -0.236075 0.871192 23.814235 1.902897 5.948613 37.503675 3.400300 -0.000000 -65.592300 11.173333 -2.459907 -2.038564 5.100745 -20.219411 -18.289511 1.706190 -1.467243 16.920897 -0.439884 5.176918 34.522326 3.568400 0.000001 -81.564200
7.361670 21.865115 1.608816 36.950769 -87.898220 -14.571105 -11.461007 2.516505 1.329888 -8.353815 6.339596 -24.229247 -0.319761 0.877202 23.298616 1.860198 6.263182 36.896246 3.615900 0.000001 -65.004300 11.102135 -2.353578 -2.152652 5.756875 -20.464443 -19.465009 1.853843 -1.468950 16.679835 -0.361105 5.016806 33.632276 3.365300 0.000000 -81.373800
7.176169 21.942148 1.595613 35.484782 -87.894041 -12.799739 -11.416505 2.393325 1.240633 -8.803081 6.382795 -25.291582 -0.406647 0.878602 22.684742 1.815532 6.596518 36.249112 3.841700 0.000000 -64.763000 11.024642 -2.240271 -2.256022 6.418850 -20.611285 -20.634233 1.997663 -1.460916 16.359511 -0.295573 4.650352 32.700743 3.030200 -0.000000 -81.403499
6.990705 22.006546 1.581861 34.079779 -87.890718 -11.080254 -11.365279 2.275003 1.161718 -9.255334 6.372100 -26.360518 -0.502087 0.879494 22.045138 1.760615 6.857154 35.487924 4.009800 -0.000000 -64.057601 10.939492 -2.126908 -2.341831 7.090802 -20.673500 -21.804348 2.140263 -1.444431 15.999453 -0.238078 4.153786 31.692451 2.614500 -0.000000 -81.075200
6.805716 22.058479 1.567476 32.772148 -87.888040 -9.458473 -11.308125 2.157770 1.089968 -9.703911 6.301862 -27.405290 -0.602080 0.876032 21.354201 1.704974 7.095552 34.725320 4.161200 -0.000000 -63.594800 10.848729 -2.010781 -2.415683 7.758611 -20.654931 -22.952170 2.278702 -1.418357 15.584720 -0.193524 3.551639 30.687898 2.145100 0.000000 -80.806100
6.621238 22.098194 1.552448 31.511397 -87.885223 -7.892031 -11.247105 2.041183 1.021136 -10.145434 6.197454 -28.424622 -0.706445 0.868417 20.627605 1.649733 7.302272 33.985917 4.290900 -0.000001 -63.294400 10.753413 -1.892672 -2.480022 8.416459 -20.571729 -24.073047 2.412729 -1.383736 15.126728 -0.161350 2.894809 29.720704 1.658400 -0.000000 -80.536900
6.437253 22.125875 1.536855 30.209177 -87.880985 -6.295130 -11.184579 1.924698 0.952117 -10.577632 6.082723 -29.428467 -0.815367 0.857496 19.885469 1.594488 7.461398 33.278669 4.389500 0.000000 -63.014900 10.653639 -1.774210 -2.535916 9.065411 -20.437487 -25.172131 2.542647 -1.342012 14.637695 -0.139945 2.225907 28.820188 1.182100 -0.000001 -80.229101
6.253833 22.141999 1.520835 28.862634 -87.873554 -4.662878 -11.121351 1.807228 0.884691 -10.998297 5.954136 -30.417443 -0.926433 0.841932 19.120193 1.542393 7.593836 32.646712 4.474500 -0.000000 -63.038600 10.550310 -1.655505 -2.584435 9.704561 -20.262059 -26.259718 2.668550 -1.294876 14.126479 -0.127658 1.575779 28.015568 0.734200 -0.000000 -79.985600
6.070998 22.146982 1.504510 27.429219 -87.861803 -2.946624 -11.058617 1.688308 0.819582 -11.406292 5.817475 -31.407591 -1.039502 0.822484 18.345247 1.492001 7.687229 32.086621 4.538500 0.000000 -63.236500 10.443132 -1.537978 -2.624054 10.337979 -20.048270 -27.352309 2.791318 -1.244235 13.605551 -0.121420 0.969797 27.318168 0.326700 0.000000 -79.799500
5.888632 22.141358 1.488075 25.881119 -87.846244 -1.109195 -10.997116 1.568075 0.758725 -11.801678 5.677118 -32.418771 -1.155400 0.800328 17.576980 1.440192 7.719563 31.579264 4.566900 0.000000 -63.390200 10.331519 -1.423595 -2.651379 10.970590 -19.794537 -28.469250 2.912805 -1.192148 13.090362 -0.116878 0.432961 26.720382 -0.030200 0.000000 -79.583000
5.706886 22.125035 1.471696 24.232225 -87.827556 0.843108 -10.936739 1.445964 0.705246 -12.183449 5.523371 -33.464014 -1.273796 0.775546 16.817517 1.385621 7.685806 31.123162 4.558000 -0.000000 -63.470200 10.215182 -1.313040 -2.662817 11.602941 -19.491280 -29.627085 3.034195 -1.140010 12.589389 -0.110532 -0.020322 26.214765 -0.332200 -0.000000 -79.349200
5.525649 22.098221 1.455471 22.549641 -87.808545 2.856389 -10.876591 1.321278 0.665545 -12.544782 5.326279 -34.541021 -1.391631 0.745732 16.042318 1.331321 7.618451 30.754347 4.536100 -0.000000 -63.839200 10.095020 -1.205771 -2.654706 12.229999 -19.122813 -30.836750 3.155921 -1.088111 12.100948 -0.100239 -0.386648 25.800091 -0.580601 -0.000000 -79.230500
5.344825 22.060506 1.439539 20.817176 -87.792183 4.950797 -10.817134 1.195043 0.638162 -12.888846 5.100686 -35.668105 -1.512346 0.713336 15.276912 1.270935 7.472600 30.423716 4.469900 0.000000 -64.013600 9.970622 -1.103926 -2.622173 12.848850 -18.678838 -32.103891 3.280100 -1.036987 11.631454 -0.081419 -0.647646 25.447158 -0.768300 -0.000000 -79.084400
5.164285 22.011692 1.423937 19.057406 -87.782203 7.105698 -10.758275 1.067684 0.623108 -13.215704 4.846830 -36.844163 -1.636539 0.678365 14.519116 1.203242 7.245295 30.127794 4.358000 0.000000 -63.979800 9.842887 -1.008040 -2.562132 13.450072 -18.149480 -33.423808 3.407605 -0.986081 11.175244 -0.051370 -0.795438 25.141898 -0.892600 -0.000000 -78.921200
4.984013 21.951025 1.408574 17.358942 -87.783011 9.227643 -10.698873 0.939445 0.620541 -13.522559 4.554349 -38.045657 -1.762380 0.638569 13.741042 1.131448 6.970571 29.896109 4.223700 0.000000 -64.017400 9.714828 -0.916103 -2.475739 14.016161 -17.534230 -34.780544 3.538128 -0.934587 10.721625 -0.008317 -0.823233 24.877749 -0.950600 0.000000 -78.831900
4.803803 21.878264 1.393397 15.694532 -87.796747 11.333541 -10.639826 0.811565 0.623360 -13.818823 4.253782 -39.266334 -1.893042 0.595755 12.957969 1.052167 6.625203 29.698330 4.050100 0.000000 -63.901800 9.587625 -0.829061 -2.364126 14.536857 -16.841949 -36.151885 3.672421 -0.881357 10.260944 0.050123 -0.721449 24.640627 -0.937500 -0.000001 -78.776700
4.623604 21.792939 1.378295 14.086449 -87.824870 13.384539 -10.581011 0.684801 0.625060 -14.113175 3.965165 -40.483986 -2.029386 0.549909 12.165410 0.966111 6.218962 29.533326 3.842199 0.000000 -63.684800 9.463641 -0.745639 -2.232822 15.000689 -16.092684 -37.511162 3.810259 -0.825534 9.783525 0.125277 -0.483001 24.423815 -0.849300 -0.000001 -78.768500
4.443266 21.695076 1.363128 12.550153 -87.866601 15.349097 -10.522352 0.560021 0.618618 -14.417564 3.710323 -41.675531 -2.172172 0.501011 11.360552 0.874600 5.765125 29.399793 3.607300 -0.000001 -63.460199 9.345064 -0.664346 -2.089230 15.400254 -15.313855 -38.831482 3.951039 -0.766355 9.280844 0.217363 -0.106397 24.225109 -0.684799 -0.000000 -78.833500
4.262815 21.584210 1.347815 11.074039 -87.919296 17.222039 -10.463849 0.437942 0.596685 -14.746988 3.514282 -42.826644 -2.322559 0.450103 10.552878 0.778206 5.268167 29.285967 3.346600 -0.000000 -63.235300 9.232985 -0.584029 -1.941635 15.736475 -14.536295 -40.091422 4.093968 -0.703687 8.750349 0.325524 0.403626 24.044732 -0.446300 0.000000 -78.969399
4.082317 21.460976 1.332319 9.647175 -87.979190 19.003533 -10.405307 0.318618 0.556593 -15.109338 3.382560 -43.924906 -2.478887 0.396928 9.741255 0.680554 4.755841 29.202403 3.076600 0.000000 -63.201700 9.127762 -0.503094 -1.797959 16.016102 -13.787044 -41.281001 4.237673 -0.637917 8.193232 0.446960 1.030031 23.891271 -0.142600 -0.000000 -79.212999
3.901728 21.325396 1.316711 8.181868 -88.039348 20.775979 -10.347293 0.202866 0.492524 -15.524814 3.342685 -44.991764 -2.643943 0.346154 8.973419 0.578459 4.197494 29.109064 2.776600 0.000001 -63.115200 9.027670 -0.422936 -1.662577 16.254674 -13.086815 -42.400766 4.381308 -0.570384 7.620952 0.578289 1.750120 23.770562 0.214300 -0.000000 -79.482799
3.721263 21.178083 1.301103 6.646400 -88.094264 22.574426 -10.289350 0.090793 0.406472 -15.997557 3.385624 -46.043442 -2.815575 0.299678 8.269033 0.474139 3.607009 29.011584 2.455401 -0.000000 -63.041800 8.931670 -0.343296 -1.538504 16.465644 -12.445563 -43.466329 4.522736 -0.503501 7.049671 0.714235 2.529293 23.700958 0.606900 -0.000001 -79.777000
3.541014 21.019554 1.285540 5.124669 -88.141887 24.329430 -10.229708 -0.017651 0.308566 -16.510180 3.464762 -47.085521 -2.986647 0.256032 7.616185 0.374994 3.042633 28.955874 2.149600 0.000001 -63.258499 8.840781 -0.261589 -1.427893 16.655277 -11.864489 -44.506038 4.658403 -0.440982 6.500830 0.848542 3.327586 23.711311 1.016800 -0.000000 -80.155600
3.361033 20.850058 1.270192 3.578126 -88.178571 26.099940 -10.168780 -0.122836 0.207572 -17.046833 3.548028 -48.152437 -3.152448 0.218068 7.041399 0.283370 2.518016 28.959102 1.866800 0.000000 -63.728300 8.753455 -0.179035 -1.327289 16.833433 -11.329804 -45.556898 4.785603 -0.386915 5.999513 0.975235 4.100800 23.831912 1.424300 -0.000000 -80.596500
3.181500 20.670017 1.255204 1.987048 -88.201624 27.925197 -10.106530 -0.224404 0.109941 -17.596412 3.610618 -49.288945 -3.310327 0.191655 6.595059 0.198293 2.020494 29.016418 1.598300 0.000000 -64.292600 8.668682 -0.097334 -1.231169 17.004542 -10.821449 -46.659277 4.901369 -0.346540 5.577060 1.089217 4.809530 24.092277 1.813200 -0.000000 -81.068900
